<?xml version="1.0" encoding="UTF-8" standalone="no"?>
<svg
   xmlns:i="http://ns.adobe.com/AdobeIllustrator/10.0/"
   xmlns:dc="http://purl.org/dc/elements/1.1/"
   xmlns:cc="http://creativecommons.org/ns#"
   xmlns:rdf="http://www.w3.org/1999/02/22-rdf-syntax-ns#"
   xmlns:svg="http://www.w3.org/2000/svg"
   xmlns="http://www.w3.org/2000/svg"
   xmlns:sodipodi="http://sodipodi.sourceforge.net/DTD/sodipodi-0.dtd"
   xmlns:inkscape="http://www.inkscape.org/namespaces/inkscape"
   version="1.1"
   x="0px"
   y="0px"
   viewBox="0 0 131 131"
   xml:space="preserve"
   id="svg12"
   sodipodi:docname="not-found.svg"
   width="131"
   height="131"
   inkscape:version="0.92.5 (2060ec1f9f, 2020-04-08)"><metadata
     id="metadata18"><rdf:RDF><cc:Work
         rdf:about=""><dc:format>image/svg+xml</dc:format><dc:type
           rdf:resource="http://purl.org/dc/dcmitype/StillImage" /><dc:title></dc:title></cc:Work></rdf:RDF></metadata><defs
     id="defs16" /><sodipodi:namedview
     pagecolor="#ffffff"
     bordercolor="#666666"
     borderopacity="1"
     objecttolerance="10"
     gridtolerance="10"
     guidetolerance="10"
     inkscape:pageopacity="0"
     inkscape:pageshadow="2"
     inkscape:window-width="1328"
     inkscape:window-height="704"
     id="namedview14"
     showgrid="false"
     fit-margin-top="0"
     fit-margin-left="0"
     fit-margin-right="0"
     fit-margin-bottom="0"
     inkscape:zoom="2"
     inkscape:cx="-30.800503"
     inkscape:cy="63.318813"
     inkscape:window-x="38"
     inkscape:window-y="27"
     inkscape:window-maximized="1"
     inkscape:current-layer="svg12" /><switch
     id="switch6"
     transform="translate(15.5,15.5)"><foreignObject
       requiredExtensions="http://ns.adobe.com/AdobeIllustrator/10.0/"
       x="0"
       y="0"
       width="1"
       height="1" /><g
       i:extraneous="self"
       id="g4"><path
         d="M 83,2.5 H 17 C 9,2.5 2.5,9 2.5,17 V 83 C 2.5,91 9,97.5 17,97.5 H 83 C 91,97.5 97.5,91 97.5,83 V 17 C 97.5,9 91,2.5 83,2.5 Z M 70.4,63.7 c 0.5,0.5 0.5,1.4 0,1.9 l -4.8,4.8 c -0.5,0.5 -1.4,0.5 -1.9,0 L 50,56.7 36.3,70.4 c -0.5,0.5 -1.4,0.5 -1.9,0 l -4.8,-4.8 c -0.5,-0.5 -0.5,-1.4 0,-1.9 L 43.3,50 29.6,36.3 c -0.5,-0.5 -0.5,-1.4 0,-1.9 l 4.8,-4.8 c 0.5,-0.5 1.4,-0.5 1.9,0 L 50,43.3 63.7,29.6 c 0.5,-0.5 1.4,-0.5 1.9,0 l 4.8,4.8 c 0.5,0.5 0.5,1.4 0,1.9 L 56.7,50 Z"
         id="path2"
         style="fill:#ff0000"
         inkscape:connector-curvature="0" /></g></switch><rect
     style="fill:none;stroke:#ff0000;stroke-width:5;stroke-miterlimit:4;stroke-dasharray:none;stroke-opacity:1"
     id="rect3724"
     width="126"
     height="126"
     x="2.5"
     y="2.5" /></svg>