<?xml version="1.0" encoding="UTF-8" standalone="no"?>
<svg
   xmlns:dc="http://purl.org/dc/elements/1.1/"
   xmlns:cc="http://creativecommons.org/ns#"
   xmlns:rdf="http://www.w3.org/1999/02/22-rdf-syntax-ns#"
   xmlns:svg="http://www.w3.org/2000/svg"
   xmlns="http://www.w3.org/2000/svg"
   xmlns:sodipodi="http://sodipodi.sourceforge.net/DTD/sodipodi-0.dtd"
   xmlns:inkscape="http://www.inkscape.org/namespaces/inkscape"
   width="24"
   height="24"
   version="1.1"
   viewBox="0 0 23.999997 23.999997"
   id="svg5170"
   sodipodi:docname="back.svg"
   inkscape:version="0.92.4 (5da689c313, 2019-01-14)">
  <metadata
     id="metadata5174">
    <rdf:RDF>
      <cc:Work
         rdf:about="">
        <dc:format>image/svg+xml</dc:format>
        <dc:type
           rdf:resource="http://purl.org/dc/dcmitype/StillImage" />
        <dc:title />
      </cc:Work>
    </rdf:RDF>
  </metadata>
  <sodipodi:namedview
     pagecolor="#ffffff"
     bordercolor="#666666"
     borderopacity="1"
     objecttolerance="10"
     gridtolerance="10"
     guidetolerance="10"
     inkscape:pageopacity="0"
     inkscape:pageshadow="2"
     inkscape:window-width="1328"
     inkscape:window-height="704"
     id="namedview5172"
     showgrid="false"
     inkscape:pagecheckerboard="true"
     inkscape:zoom="24.795918"
     inkscape:cx="8.3666667"
     inkscape:cy="12.814815"
     inkscape:window-x="38"
     inkscape:window-y="27"
     inkscape:window-maximized="0"
     inkscape:current-layer="svg5170"
     units="px"
     width="32mm" />
  <defs
     id="defs5164">
    <style
       id="style5162">.cls-1{fill:#fff;}</style>
  </defs>
  <path
     style="fill:#ffffff;stroke-width:0.05430709"
     d="M 18.524056,5.4004998 V 10.830642 H 3.8010003 v 7.296972 c 0,0.260205 0.2023277,0.471886 0.4537701,0.471886 H 5.4759453 V 13.169357 H 20.199 V 5.8723859 c 5.3e-5,-0.2602607 -0.202328,-0.4718861 -0.45377,-0.4718861 z"
     id="path868"
     inkscape:connector-curvature="0" />
  <g
     style="fill:#ffffff"
     id="g414"
     transform="matrix(0.36666667,0,0,0.36666667,0.9999999,0.9999999)" />
  <g
     style="fill:#ffffff"
     id="g416"
     transform="matrix(0.36666667,0,0,0.36666667,0.9999999,0.9999999)" />
  <g
     style="fill:#ffffff"
     id="g418"
     transform="matrix(0.36666667,0,0,0.36666667,0.9999999,0.9999999)" />
  <g
     style="fill:#ffffff"
     id="g420"
     transform="matrix(0.36666667,0,0,0.36666667,0.9999999,0.9999999)" />
  <g
     style="fill:#ffffff"
     id="g422"
     transform="matrix(0.36666667,0,0,0.36666667,0.9999999,0.9999999)" />
  <g
     style="fill:#ffffff"
     id="g424"
     transform="matrix(0.36666667,0,0,0.36666667,0.9999999,0.9999999)" />
  <g
     style="fill:#ffffff"
     id="g426"
     transform="matrix(0.36666667,0,0,0.36666667,0.9999999,0.9999999)" />
  <g
     style="fill:#ffffff"
     id="g428"
     transform="matrix(0.36666667,0,0,0.36666667,0.9999999,0.9999999)" />
  <g
     style="fill:#ffffff"
     id="g430"
     transform="matrix(0.36666667,0,0,0.36666667,0.9999999,0.9999999)" />
  <g
     style="fill:#ffffff"
     id="g432"
     transform="matrix(0.36666667,0,0,0.36666667,0.9999999,0.9999999)" />
  <g
     style="fill:#ffffff"
     id="g434"
     transform="matrix(0.36666667,0,0,0.36666667,0.9999999,0.9999999)" />
  <g
     style="fill:#ffffff"
     id="g436"
     transform="matrix(0.36666667,0,0,0.36666667,0.9999999,0.9999999)" />
  <g
     style="fill:#ffffff"
     id="g438"
     transform="matrix(0.36666667,0,0,0.36666667,0.9999999,0.9999999)" />
  <g
     style="fill:#ffffff"
     id="g440"
     transform="matrix(0.36666667,0,0,0.36666667,0.9999999,0.9999999)" />
  <g
     style="fill:#ffffff"
     id="g442"
     transform="matrix(0.36666667,0,0,0.36666667,0.9999999,0.9999999)" />
  <g
     style="fill:#ffffff"
     id="g874"
     transform="matrix(0.04687509,0,0,0.04687509,-2.304e-5,3.97545e-7)" />
  <g
     style="fill:#ffffff"
     id="g876"
     transform="matrix(0.04687509,0,0,0.04687509,-2.304e-5,3.97545e-7)" />
  <g
     style="fill:#ffffff"
     id="g878"
     transform="matrix(0.04687509,0,0,0.04687509,-2.304e-5,3.97545e-7)" />
  <g
     style="fill:#ffffff"
     id="g880"
     transform="matrix(0.04687509,0,0,0.04687509,-2.304e-5,3.97545e-7)" />
  <g
     style="fill:#ffffff"
     id="g882"
     transform="matrix(0.04687509,0,0,0.04687509,-2.304e-5,3.97545e-7)" />
  <g
     style="fill:#ffffff"
     id="g884"
     transform="matrix(0.04687509,0,0,0.04687509,-2.304e-5,3.97545e-7)" />
  <g
     style="fill:#ffffff"
     id="g886"
     transform="matrix(0.04687509,0,0,0.04687509,-2.304e-5,3.97545e-7)" />
  <g
     style="fill:#ffffff"
     id="g888"
     transform="matrix(0.04687509,0,0,0.04687509,-2.304e-5,3.97545e-7)" />
  <g
     style="fill:#ffffff"
     id="g890"
     transform="matrix(0.04687509,0,0,0.04687509,-2.304e-5,3.97545e-7)" />
  <g
     style="fill:#ffffff"
     id="g892"
     transform="matrix(0.04687509,0,0,0.04687509,-2.304e-5,3.97545e-7)" />
  <g
     style="fill:#ffffff"
     id="g894"
     transform="matrix(0.04687509,0,0,0.04687509,-2.304e-5,3.97545e-7)" />
  <g
     style="fill:#ffffff"
     id="g896"
     transform="matrix(0.04687509,0,0,0.04687509,-2.304e-5,3.97545e-7)" />
  <g
     style="fill:#ffffff"
     id="g898"
     transform="matrix(0.04687509,0,0,0.04687509,-2.304e-5,3.97545e-7)" />
  <g
     style="fill:#ffffff"
     id="g900"
     transform="matrix(0.04687509,0,0,0.04687509,-2.304e-5,3.97545e-7)" />
  <g
     style="fill:#ffffff"
     id="g902"
     transform="matrix(0.04687509,0,0,0.04687509,-2.304e-5,3.97545e-7)" />
  <g
     style="fill:#ffffff"
     id="g860"
     transform="matrix(0.04687509,0,0,0.04687509,-2.304e-5,3.97545e-7)" />
  <g
     id="g1067"
     transform="translate(-309.52724,-239.05314)" />
  <g
     id="g1069"
     transform="translate(-309.52724,-239.05314)" />
  <g
     id="g1071"
     transform="translate(-309.52724,-239.05314)" />
  <g
     id="g1073"
     transform="translate(-309.52724,-239.05314)" />
  <g
     id="g1075"
     transform="translate(-309.52724,-239.05314)" />
  <g
     id="g1077"
     transform="translate(-309.52724,-239.05314)" />
  <g
     id="g1079"
     transform="translate(-309.52724,-239.05314)" />
  <g
     id="g1081"
     transform="translate(-309.52724,-239.05314)" />
  <g
     id="g1083"
     transform="translate(-309.52724,-239.05314)" />
  <g
     id="g1085"
     transform="translate(-309.52724,-239.05314)" />
  <g
     id="g1087"
     transform="translate(-309.52724,-239.05314)" />
  <g
     id="g1089"
     transform="translate(-309.52724,-239.05314)" />
  <g
     id="g1091"
     transform="translate(-309.52724,-239.05314)" />
  <g
     id="g1093"
     transform="translate(-309.52724,-239.05314)" />
  <g
     id="g1095"
     transform="translate(-309.52724,-239.05314)" />
  <path
     inkscape:connector-curvature="0"
     style="fill:#ffffff;stroke-width:1.1128217"
     d="M 0,0 H 15.727885 V 9.00846 H 0 Z"
     id="rect1144" />
  <path
     inkscape:connector-curvature="0"
     style="fill:#ffffff;stroke-width:1.1128217"
     d="M 8.2721148,14.99154 H 24 V 24 H 8.2721148 Z"
     id="rect1144-6" />
</svg>
