<?xml version="1.0" encoding="UTF-8" standalone="no"?>
<svg
   xmlns:dc="http://purl.org/dc/elements/1.1/"
   xmlns:cc="http://creativecommons.org/ns#"
   xmlns:rdf="http://www.w3.org/1999/02/22-rdf-syntax-ns#"
   xmlns:svg="http://www.w3.org/2000/svg"
   xmlns="http://www.w3.org/2000/svg"
   height="25"
   width="25"
   id="svg100"
   y="0px"
   x="0px"
   version="1.1"
   viewBox="0 0 25 25">
  <metadata
     id="metadata106">
    <rdf:RDF>
      <cc:Work
         rdf:about="">
        <dc:format>image/svg+xml</dc:format>
        <dc:type
           rdf:resource="http://purl.org/dc/dcmitype/StillImage" />
        <dc:title>lock-icon@1x</dc:title>
      </cc:Work>
    </rdf:RDF>
  </metadata>
  <defs
     id="defs104" />
  <title
     id="title78">lock-icon@1x</title>
  <desc
     id="desc80">Created with Sketch.</desc>
  <g
     transform="matrix(1.0061977,0,0,1.0065457,-614.10539,-3054.8534)"
     id="g92"
     style="fill:#ffffff;fill-rule:evenodd;stroke:none;stroke-width:1">
    <g
       style="fill:#ffffff"
       transform="translate(-14,-75)"
       id="g90">
      <g
         style="fill:#ffffff"
         transform="translate(307,2555)"
         id="g88">
        <g
           style="fill:#ffffff"
           transform="translate(0,237)"
           id="g86">
          <g
             style="fill:#ffffff"
             transform="translate(318,313)"
             id="g84" />
        </g>
      </g>
    </g>
  </g>
  <g
     transform="matrix(-1.0061977,0,0,1.0065457,639.18238,-3054.7721)"
     id="g92-3"
     style="fill:#ffffff;fill-rule:evenodd;stroke:none;stroke-width:1">
    <g
       style="fill:#ffffff"
       transform="translate(-14,-75)"
       id="g90-6">
      <g
         style="fill:#ffffff"
         transform="translate(307,2555)"
         id="g88-7">
        <g
           style="fill:#ffffff"
           transform="translate(0,237)"
           id="g86-5">
          <g
             style="fill:#ffffff"
             transform="translate(318,313)"
             id="g84-3">
            <path
               d="m 2.1537783,15.272917 -1.48985579,-0.0017 c -0.74210452,-8.46e-4 -1.341126,0.574282 -1.341126,1.28574 v 3.210088 c 0,6.577503 5.56094699,9.896093 12.42421849,9.896093 6.860846,0 12.421793,-3.31859 12.421793,-9.896093 v -3.210088 c 0,-0.711458 -0.599021,-1.28574 -1.341127,-1.28574 H 21.416224 V 14.021904 C 21.406524,8.9161439 16.992688,4.7636448 11.747015,4.8264205 6.5013411,4.7636448 2.1441573,8.9969118 2.1518883,14.102675 l 0.00189,1.170242 M 5.06885,15.260837 c 0,0 -0.00541,-0.217816 -0.023717,-1.213965 -0.064043,-3.484669 3.2411422,-6.4187964 6.857093,-6.4280964 3.61595,0.0093 6.603777,2.8621094 6.620753,6.3473254 0,0 -0.01455,-0.09687 -0.02183,1.305115 L 5.06885,15.260837 m -2.8309827,4.389956 c -0.04365,5.06391 4.2853,7.219985 9.5115727,7.219985 5.158367,0 9.453368,-2.046799 9.511572,-7.040958 V 18.058927 H 2.2378675 Z m 10.8599757,3.753292 c 0,0.716108 -0.606296,1.29504 -1.350828,1.29504 -0.746957,0 -1.353253,-0.578932 -1.353253,-1.29504 V 21.365039 C 10.04211,21.030235 9.8238435,20.567554 9.8238435,20.056048 c 0,-1.018362 0.8609405,-1.843747 1.9231715,-1.843747 1.06223,0 1.923171,0.825385 1.923171,1.843747 0,0.511506 -0.220692,0.974187 -0.572343,1.308991 z"
               style="fill:#ffffff;stroke-width:1.02898371"
               id="path82-5" />
          </g>
        </g>
      </g>
    </g>
  </g>
</svg>
