<?xml version="1.0" encoding="UTF-8" standalone="no"?>
<svg
   xmlns:dc="http://purl.org/dc/elements/1.1/"
   xmlns:cc="http://creativecommons.org/ns#"
   xmlns:rdf="http://www.w3.org/1999/02/22-rdf-syntax-ns#"
   xmlns:svg="http://www.w3.org/2000/svg"
   xmlns="http://www.w3.org/2000/svg"
   xmlns:sodipodi="http://sodipodi.sourceforge.net/DTD/sodipodi-0.dtd"
   xmlns:inkscape="http://www.inkscape.org/namespaces/inkscape"
   width="24"
   height="24"
   version="1.1"
   viewBox="0 0 23.999997 23.999997"
   id="svg5170"
   sodipodi:docname="ungroup.svg"
   inkscape:version="0.92.4 (5da689c313, 2019-01-14)">
  <metadata
     id="metadata5174">
    <rdf:RDF>
      <cc:Work
         rdf:about="">
        <dc:format>image/svg+xml</dc:format>
        <dc:type
           rdf:resource="http://purl.org/dc/dcmitype/StillImage" />
        <dc:title />
      </cc:Work>
    </rdf:RDF>
  </metadata>
  <sodipodi:namedview
     pagecolor="#ffffff"
     bordercolor="#666666"
     borderopacity="1"
     objecttolerance="10"
     gridtolerance="10"
     guidetolerance="10"
     inkscape:pageopacity="0"
     inkscape:pageshadow="2"
     inkscape:window-width="1328"
     inkscape:window-height="704"
     id="namedview5172"
     showgrid="false"
     inkscape:pagecheckerboard="true"
     inkscape:zoom="9"
     inkscape:cx="-3.0999996"
     inkscape:cy="6.088889"
     inkscape:window-x="38"
     inkscape:window-y="27"
     inkscape:window-maximized="0"
     inkscape:current-layer="svg5170"
     units="px"
     width="32mm" />
  <defs
     id="defs5164">
    <style
       id="style5162">.cls-1{fill:#fff;}</style>
  </defs>
  <g
     id="g761"
     transform="matrix(1.4906832,0,0,1.4906832,-5.6149063,-6.1614903)">
    <rect
       x="3.7666664"
       y="4.1333332"
       style="fill:#ffffff;stroke-width:0.36666667"
       width="8.0666666"
       height="8.0666666"
       id="rect382" />
    <polygon
       transform="matrix(0.36666667,0,0,0.36666667,2.9999999,2.9999999)"
       style="fill:#ffffff"
       points="35,36 24,36 24,47 46,47 46,25 35,25 "
       id="polygon386" />
  </g>
  <g
     style="fill:#ffffff"
     id="g414"
     transform="matrix(0.36666667,0,0,0.36666667,0.9999999,0.9999999)" />
  <g
     style="fill:#ffffff"
     id="g416"
     transform="matrix(0.36666667,0,0,0.36666667,0.9999999,0.9999999)" />
  <g
     style="fill:#ffffff"
     id="g418"
     transform="matrix(0.36666667,0,0,0.36666667,0.9999999,0.9999999)" />
  <g
     style="fill:#ffffff"
     id="g420"
     transform="matrix(0.36666667,0,0,0.36666667,0.9999999,0.9999999)" />
  <g
     style="fill:#ffffff"
     id="g422"
     transform="matrix(0.36666667,0,0,0.36666667,0.9999999,0.9999999)" />
  <g
     style="fill:#ffffff"
     id="g424"
     transform="matrix(0.36666667,0,0,0.36666667,0.9999999,0.9999999)" />
  <g
     style="fill:#ffffff"
     id="g426"
     transform="matrix(0.36666667,0,0,0.36666667,0.9999999,0.9999999)" />
  <g
     style="fill:#ffffff"
     id="g428"
     transform="matrix(0.36666667,0,0,0.36666667,0.9999999,0.9999999)" />
  <g
     style="fill:#ffffff"
     id="g430"
     transform="matrix(0.36666667,0,0,0.36666667,0.9999999,0.9999999)" />
  <g
     style="fill:#ffffff"
     id="g432"
     transform="matrix(0.36666667,0,0,0.36666667,0.9999999,0.9999999)" />
  <g
     style="fill:#ffffff"
     id="g434"
     transform="matrix(0.36666667,0,0,0.36666667,0.9999999,0.9999999)" />
  <g
     style="fill:#ffffff"
     id="g436"
     transform="matrix(0.36666667,0,0,0.36666667,0.9999999,0.9999999)" />
  <g
     style="fill:#ffffff"
     id="g438"
     transform="matrix(0.36666667,0,0,0.36666667,0.9999999,0.9999999)" />
  <g
     style="fill:#ffffff"
     id="g440"
     transform="matrix(0.36666667,0,0,0.36666667,0.9999999,0.9999999)" />
  <g
     style="fill:#ffffff"
     id="g442"
     transform="matrix(0.36666667,0,0,0.36666667,0.9999999,0.9999999)" />
</svg>
